<?xml version="1.0" ?><svg height="512" preserveAspectRatio="xMidYMid" viewBox="0 0 512 512" width="512" xmlns="http://www.w3.org/2000/svg" xmlns:xlink="http://www.w3.org/1999/xlink"><defs><style>
      .cls-1 {
        fill: #db9834;
      }

      .cls-2 {
        fill: #000;
        opacity: 0.3;
      }

      .cls-2, .cls-3 {
        fill-rule: evenodd;
      }

      .cls-3 {
        fill: #fff;
      }
    </style></defs><g><circle class="cls-1" cx="256" cy="256" r="256"/><path class="cls-2" d="M7.744,318.740 C35.722,429.793 136.261,512.000 256.000,512.000 C266.984,512.000 277.807,511.308 288.427,509.966 L377.577,356.478 L296.000,301.000 L373.000,205.000 L308.000,138.000 L186.000,241.000 L146.664,216.736 L7.744,318.740 Z"/><path class="cls-3" d="M289.851,175.270 C289.851,149.163 310.927,128.000 336.926,128.000 C362.924,128.000 384.000,149.163 384.000,175.270 C384.000,201.376 362.924,222.539 336.926,222.539 C324.618,222.539 313.413,217.796 305.025,210.031 L222.149,254.938 C222.149,257.051 222.011,259.131 221.743,261.171 L302.211,302.629 C310.670,294.473 322.157,289.461 334.810,289.461 C360.808,289.461 381.884,310.624 381.884,336.730 C381.884,362.837 360.808,384.000 334.810,384.000 C308.811,384.000 287.736,362.837 287.736,336.730 L200.678,294.611 C193.309,299.416 184.516,302.207 175.074,302.207 C149.076,302.207 128.000,281.044 128.000,254.938 C128.000,228.831 149.076,207.668 175.074,207.668 C186.840,207.668 197.598,212.003 205.850,219.168 L289.851,175.270 Z"/></g></svg>